<svg xmlns="http://www.w3.org/2000/svg" xmlns:svg="http://www.w3.org/2000/svg" xmlns:xlink="http://www.w3.org/1999/xlink" id="svg445" width="600" height="300" version="1.1"><metadata id="metadata449"/><defs id="defs193"><linearGradient id="linearGradient4128" x1="1275.703" x2="281.122" y1="760" y2="760" gradientTransform="matrix(0.3,0,0,0.3,4.6,-10.627807)" gradientUnits="userSpaceOnUse" xlink:href="#linearGradient3161"/><linearGradient id="linearGradient3161"><stop style="stop-color:#1c71d8;stop-opacity:1" id="stop3157" offset="0"/><stop style="stop-color:#33d17a;stop-opacity:1" id="stop3159" offset="1"/></linearGradient><clipPath id="clipPath2067" clipPathUnits="userSpaceOnUse"><path id="path2069" d="m 355,675 -35,35 h -74 c -8.864,0 -16,7.136 -16,16 v 138 c 0,8.864 7.136,16 16,16 h 74 l 35,-35 35,35 h 134 c 8.864,0 16,-7.136 16,-16 V 726 c 0,-8.864 -7.136,-16 -16,-16 H 390 Z" style="opacity:1;fill:#c0bfbc;fill-opacity:1;stroke:none;stroke-width:2;stroke-linecap:square;stroke-linejoin:round;stroke-dashoffset:26.4;stroke-opacity:1"/></clipPath><linearGradient id="linearGradient1102" x1="60" x2="68" y1="199.856" y2="199.856" gradientTransform="matrix(0.89343812,0,0,0.89343812,7.5049853,20.469212)" gradientUnits="userSpaceOnUse" xlink:href="#linearGradient1307"/><linearGradient id="linearGradient1307"><stop style="stop-color:#3d3846;stop-opacity:1" id="stop1300" offset="0"/><stop style="stop-color:#a2a2a6;stop-opacity:1" id="stop1303" offset=".317"/><stop style="stop-color:#3d3846;stop-opacity:1" id="stop1305" offset="1"/></linearGradient><linearGradient id="linearGradient1120" x1="58" x2="70" y1="189" y2="189" gradientTransform="matrix(0.90637295,0,0,0.90637295,6.7147439,16.340332)" gradientUnits="userSpaceOnUse" xlink:href="#linearGradient1307"/><filter id="filter4520" width="1.12" height="1.12" x="-.06" y="-.06" style="color-interpolation-filters:sRGB"><feGaussianBlur id="feGaussianBlur100" stdDeviation="1.2"/></filter><linearGradient id="linearGradient1616" x1="175.59" x2="175.59" y1="822.553" y2="881.22" gradientTransform="matrix(0.27272726,0,0,0.27272726,16.111825,15.667282)" gradientUnits="userSpaceOnUse" xlink:href="#linearGradient4631"/><linearGradient id="linearGradient4631" x1="147.31" x2="185.85" y1="830.88" y2="869.42" gradientTransform="translate(351.45,336.28)" gradientUnits="userSpaceOnUse"><stop style="stop-color:#f2f2f2;stop-opacity:1" id="stop83-3" offset="0"/><stop style="stop-color:gray;stop-opacity:.8" id="stop85-6" offset="1"/></linearGradient><linearGradient id="linearGradient1717" x1="128.817" x2="158.518" y1="-97.698" y2="-127.399" gradientTransform="matrix(0.15612285,-0.1103955,0.15612285,0.11039551,46.966318,104.46916)" gradientUnits="userSpaceOnUse" xlink:href="#linearGradient1005"/><linearGradient id="linearGradient1005"><stop id="stop1001" offset="0" style="stop-color:#d0bb8e;stop-opacity:1"/><stop id="stop1003" offset="1" style="stop-color:#fff;stop-opacity:1"/></linearGradient><linearGradient id="linearGradient1719" x1="115" x2="115" y1="183" y2="174" gradientTransform="matrix(1.5799969,0,0,1,-97.106293,-104)" gradientUnits="userSpaceOnUse" xlink:href="#linearGradient1686"/><linearGradient id="linearGradient1686"><stop id="stop1682" offset="0" style="stop-color:#5e5c64;stop-opacity:1"/><stop id="stop1684" offset="1" style="stop-color:#9a9996;stop-opacity:1"/></linearGradient><linearGradient id="linearGradient1721" x1="110" x2="110" y1="182" y2="174" gradientTransform="translate(-29.333333,-104)" gradientUnits="userSpaceOnUse" xlink:href="#linearGradient1514"/><linearGradient id="linearGradient1514"><stop style="stop-color:#9a9996;stop-opacity:1" id="stop1510" offset="0"/><stop id="stop1516" offset=".533" style="stop-color:#deddda;stop-opacity:1"/><stop style="stop-color:#f6f5f4;stop-opacity:1" id="stop1512" offset="1"/></linearGradient><linearGradient id="linearGradient3613" x1="1574.435" x2="1648.121" y1="213.236" y2="213.236" gradientUnits="userSpaceOnUse" xlink:href="#linearGradient1181"/><linearGradient id="linearGradient1181"><stop style="stop-color:#77767b;stop-opacity:1" id="stop1177" offset="0"/><stop style="stop-color:#a2a2a6;stop-opacity:1" id="stop1185" offset=".317"/><stop style="stop-color:#77767b;stop-opacity:1" id="stop1179" offset="1"/></linearGradient><linearGradient id="linearGradient3615" x1="1574.435" x2="1648.121" y1="213.236" y2="213.236" gradientUnits="userSpaceOnUse" xlink:href="#linearGradient1307"/><linearGradient id="linearGradient1183" x1="1589.498" x2="1690.939" y1="211.155" y2="211.155" gradientUnits="userSpaceOnUse" xlink:href="#linearGradient1298"/><linearGradient id="linearGradient1298"><stop style="stop-color:#77767b;stop-opacity:1" id="stop1292" offset="0"/><stop style="stop-color:#9a9996;stop-opacity:1" id="stop1294" offset=".317"/><stop style="stop-color:#3d3846;stop-opacity:1" id="stop1296" offset="1"/></linearGradient><linearGradient id="linearGradient1214" x1="1574.435" x2="1648.121" y1="213.236" y2="213.236" gradientTransform="translate(24.420445)" gradientUnits="userSpaceOnUse" xlink:href="#linearGradient1315"/><linearGradient id="linearGradient1315"><stop style="stop-color:#5e5c64;stop-opacity:1" id="stop1309" offset="0"/><stop style="stop-color:#9a9996;stop-opacity:1" id="stop1311" offset=".317"/><stop style="stop-color:#5e5c64;stop-opacity:1" id="stop1313" offset="1"/></linearGradient><linearGradient id="linearGradient3619" x1="1575.074" x2="1663.814" y1="300.139" y2="300.139" gradientTransform="translate(24.420445)" gradientUnits="userSpaceOnUse" xlink:href="#linearGradient1269"/><linearGradient id="linearGradient1269"><stop style="stop-color:#c0bfbc;stop-opacity:1" id="stop1265" offset="0"/><stop style="stop-color:#d1d0ce;stop-opacity:1" id="stop1273" offset=".407"/><stop style="stop-color:#c0bfbc;stop-opacity:1" id="stop1267" offset="1"/></linearGradient><clipPath id="clipPath1547" clipPathUnits="userSpaceOnUse"><ellipse style="fill:#9141ac;fill-opacity:1;stroke:none;stroke-width:2;stroke-opacity:.956856;stop-color:#000" id="ellipse1549" cx="1615.072" cy="332.343" rx="34.171" ry="24.497"/></clipPath><linearGradient id="linearGradient1308" x1="1592.402" x2="1637.724" y1="350.835" y2="350.835" gradientUnits="userSpaceOnUse" xlink:href="#linearGradient1306"/><linearGradient id="linearGradient1306"><stop style="stop-color:#a3a3a3;stop-opacity:1" id="stop1302" offset="0"/><stop style="stop-color:#e8e7e6;stop-opacity:1" id="stop1310" offset=".472"/><stop style="stop-color:#aeaeae;stop-opacity:1" id="stop1304" offset="1"/></linearGradient><radialGradient id="radialGradient3627" cx="1614.563" cy="343.175" r="34.171" fx="1614.563" fy="343.175" gradientTransform="matrix(0.99999955,0,0,0.71690331,7.2097993e-4,92.202987)" gradientUnits="userSpaceOnUse" xlink:href="#linearGradient3625"/><linearGradient id="linearGradient3625"><stop style="stop-color:#3f8ae6;stop-opacity:1" id="stop3621" offset="0"/><stop style="stop-color:#1a5fb4;stop-opacity:1" id="stop3623" offset="1"/></linearGradient><radialGradient id="radialGradient1200" cx="-214.941" cy="235.923" r="25.55" fx="-214.941" fy="235.923" gradientTransform="matrix(1.1763972,0,0,1.8591173,13.917124,-222.08181)" gradientUnits="userSpaceOnUse" xlink:href="#linearGradient1170"/><linearGradient id="linearGradient1170"><stop style="stop-color:#a4a3a7;stop-opacity:1" id="stop1166" offset="0"/><stop style="stop-color:#77767b;stop-opacity:1" id="stop1168" offset="1"/></linearGradient><radialGradient id="radialGradient1172" cx="-78.897" cy="235.923" r="25.55" fx="-78.897" fy="235.923" gradientTransform="matrix(1.1763972,0,0,1.8591173,13.917124,-222.08181)" gradientUnits="userSpaceOnUse" xlink:href="#linearGradient1170"/><linearGradient id="linearGradient1208" x1="263.087" x2="290" y1="280.943" y2="280.943" gradientUnits="userSpaceOnUse" xlink:href="#linearGradient1206"/><linearGradient id="linearGradient1206"><stop style="stop-color:#504f56;stop-opacity:1" id="stop1202" offset="0"/><stop style="stop-color:#4d4759;stop-opacity:1" id="stop1210" offset=".147"/><stop style="stop-color:#5e5c64;stop-opacity:1" id="stop1204" offset="1"/></linearGradient><linearGradient id="linearGradient1162" x1="-263.84" x2="-228.84" y1="291" y2="291" gradientUnits="userSpaceOnUse" xlink:href="#linearGradient1160"/><linearGradient id="linearGradient1160"><stop style="stop-color:#484253;stop-opacity:1" id="stop1156" offset="0"/><stop style="stop-color:#4d4c52;stop-opacity:1" id="stop1164" offset=".286"/><stop style="stop-color:#5e5c64;stop-opacity:1" id="stop1158" offset="1"/></linearGradient><linearGradient id="linearGradient1137" x1="88.703" x2="260.1" y1="206.089" y2="206.22" gradientTransform="matrix(-1,0,0,1,21.16016,16)" gradientUnits="userSpaceOnUse" xlink:href="#linearGradient1135"/><linearGradient id="linearGradient1135"><stop style="stop-color:#7a728a;stop-opacity:1" id="stop1131" offset="0"/><stop style="stop-color:#3d3846;stop-opacity:1" id="stop1143" offset=".065"/><stop style="stop-color:#49474e;stop-opacity:1" id="stop1141" offset=".093"/><stop style="stop-color:#434147;stop-opacity:1" id="stop1139" offset=".968"/><stop style="stop-color:#5e5c64;stop-opacity:1" id="stop1133" offset="1"/></linearGradient><linearGradient id="linearGradient1875" x1="1574.435" x2="1648.121" y1="213.236" y2="213.236" gradientUnits="userSpaceOnUse" xlink:href="#linearGradient1307"/><linearGradient id="linearGradient1877" x1="1575.074" x2="1663.814" y1="300.139" y2="300.139" gradientTransform="translate(24.420445)" gradientUnits="userSpaceOnUse" xlink:href="#linearGradient1269"/></defs><g id="layer3"><path id="rect1722" d="m 66.6,61.731859 v 0.560354 a 35.07998,35.07998 45 0 0 35.07998,35.07998 h 17.94832 a 8,8 45 0 1 8,7.999997 v 3.27969 a 8,8 135 0 1 -8,8 H 45.67998 A 35.07998,35.07998 135 0 0 10.6,151.73186 v 0.56035 a 35.07998,35.07998 45 0 0 35.07998,35.07998 H 148 a 8,8 45 0 1 8,8 v 2 a 8,8 135 0 1 -8,8 h -4.32002 A 35.07998,35.07998 135 0 0 108.6,240.45217 v 0.56036 a 35.07998,35.07998 45 0 0 35.07998,35.07998 H 521.52002 A 35.07998,35.07998 135 0 0 556.6,241.01253 v -0.56036 A 35.07998,35.07998 45 0 0 521.52002,205.37219 H 276 a 8,8 45 0 1 -8,-8 v -2 a 8,8 135 0 1 8,-8 h 79.52002 A 35.07998,35.07998 135 0 0 390.6,152.29221 v -0.56035 A 35.07998,35.07998 45 0 0 355.52002,116.65188 H 334.21709 A 9.6170893,9.6170893 45 0 1 324.6,107.03479 v -0.0455 a 9.6170893,9.6170893 135 0 1 9.61709,-9.617087 h 7.30293 A 35.07998,35.07998 135 0 0 376.6,62.292213 V 61.731859 A 35.07998,35.07998 45 0 0 341.52002,26.651879 H 101.67998 A 35.07998,35.07998 135 0 0 66.6,61.731859 Z" style="opacity:1;fill:url(#linearGradient4128);fill-opacity:1;stroke:none;stroke-width:2;stroke-opacity:.956856;stop-color:#000"/></g><g id="layer1"><g id="g2280" transform="translate(0,-635)"><path id="path2181" d="m 355,675 -35,35 h -74 c -8.864,0 -16,7.136 -16,16 v 138 c 0,8.864 7.136,16 16,16 h 74 l 35,-35 35,35 h 134 c 8.864,0 16,-7.136 16,-16 V 726 c 0,-8.864 -7.136,-16 -16,-16 H 390 Z" style="opacity:1;fill:#c0bfbc;fill-opacity:1;stroke:none;stroke-width:2;stroke-linecap:square;stroke-linejoin:round;stroke-dashoffset:26.4;stroke-opacity:1"/><path id="path2183" d="m 292,835 h 28 l 35,-35 35,35 h 10 v 45 h -10 l -35,-35 -35,35 h -28 z" style="fill:#9a9996;fill-opacity:1;stroke:none;stroke-width:1.99998;stroke-linecap:square;stroke-linejoin:round;stroke-dashoffset:26.4"/><path style="fill:#57e389;stroke:none;stroke-width:1px;stroke-linecap:butt;stroke-linejoin:miter;stroke-opacity:1" id="path2185" d="m 292.5,833 v -30 l -25,-25 V 710 H 320 l 35,-35 35,35 h 50 l -5,115 -45,5 -35,-32 -35,32 z"/><path style="fill:none;stroke:#fff;stroke-width:5;stroke-linecap:butt;stroke-linejoin:miter;stroke-miterlimit:4;stroke-dasharray:none;stroke-opacity:1" id="path2187" d="M 337.5,812 V 744.5"/><path style="fill:#c0bfbc;fill-opacity:1;stroke:none;stroke-width:1px;stroke-linecap:butt;stroke-linejoin:miter;stroke-opacity:1" id="path2684" d="m 272,762.5 h 48 l 35,-35 35,35 h 17 V 710 h -17 l -35,-35 -35,35 h -50 z"/><path style="fill:none;stroke:#fff;stroke-width:5;stroke-linecap:butt;stroke-linejoin:miter;stroke-miterlimit:4;stroke-dasharray:none;stroke-opacity:1" id="path2189" d="m 272,762.5 h 48 l 35,-35 35,35 h 150"/><g id="g2197" clip-path="url(#clipPath2067)"><path id="path2191" d="m 531.94995,688 v 29 a 8,8 135 0 1 -8,8 H 523 a 8,8 135 0 0 -8,8 v 4 a 8,8 135 0 1 -8,8 h -29 a 8,8 45 0 1 -8,-8 v -19 a 8,8 135 0 1 8,-8 h 4 a 8,8 135 0 0 8,-8 v -14 a 8,8 135 0 1 8,-8 h 25.94995 a 8,8 45 0 1 8,8 z" style="fill:#73aaec;fill-opacity:1;stroke-width:2.99999;stroke-opacity:.956856;stop-color:#000"/><path id="path2193" d="m 590,783 v 64 a 8,8 135 0 1 -8,8 h -19 a 8,8 135 0 0 -8,8 v 24 a 8,8 135 0 1 -8,8 h -69 a 8,8 45 0 1 -8,-8 v -54 a 8,8 135 0 1 8,-8 h 14 a 8,8 135 0 0 8,-8 v -34 a 8,8 135 0 1 8,-8 h 74 a 8,8 45 0 1 8,8 z" style="fill:#73aaec;fill-opacity:1;stroke-width:5.9097;stroke-opacity:.956856;stop-color:#000"/><path style="fill:#73aaec;fill-opacity:1;stroke:none;stroke-width:1px;stroke-linecap:butt;stroke-linejoin:miter;stroke-opacity:1" id="path2195" d="m 292.5,803 v 30 H 186.04919 V 697.82048 L 267.5,710 v 68 z"/></g><path style="fill:none;stroke:#f8e45c;stroke-width:10;stroke-linecap:butt;stroke-linejoin:miter;stroke-miterlimit:4;stroke-dasharray:none;stroke-opacity:1" id="path2203" d="m 267.5,710 v 68 l 25,25 v 30"/><path style="fill:#9a9996;fill-opacity:1;stroke:none;stroke-width:1px;stroke-linecap:butt;stroke-linejoin:miter;stroke-opacity:1" id="path2698" d="m 400,750 h -10 l -15,-15 v -20 l 15,15 h 10 z"/><path style="fill:none;stroke:#f8e45c;stroke-width:10;stroke-linecap:butt;stroke-linejoin:miter;stroke-miterlimit:4;stroke-dasharray:none;stroke-opacity:1" id="path2205" d="m 435,710 v 100 a 20,20 135 0 1 -20,20 h -25 l -35,-32 -35,32 h -90"/><path style="fill:#9a9996;fill-opacity:1;stroke:none;stroke-width:1px;stroke-linecap:butt;stroke-linejoin:miter;stroke-opacity:1" id="path2690" d="m 327,743 8,-8 v -25 l -8,8 z"/><path style="fill:#9a9996;fill-opacity:1;stroke:none;stroke-width:1px;stroke-linecap:butt;stroke-linejoin:miter;stroke-opacity:1" id="path2692" d="m 340,730 10,-10 v -15 l -10,10 z"/><path style="fill:#9a9996;fill-opacity:1;stroke:none;stroke-width:1px;stroke-linecap:butt;stroke-linejoin:miter;stroke-opacity:1" id="path3153" d="m 340,710 10,-10 v -15 l -10,10 z"/><path style="opacity:.38;fill:#fff;fill-opacity:1;stroke:none;stroke-width:1px;stroke-linecap:butt;stroke-linejoin:miter;stroke-opacity:1" id="path2209" d="m 320,880 35,-35 V 675 l -35,35 z"/><path style="opacity:.16;fill:#3d3846;stroke:none;stroke-width:1px;stroke-linecap:butt;stroke-linejoin:miter;stroke-opacity:1" id="path2211" d="M 390,880 355,845 V 675 l 35,35 z"/><path style="fill:none;stroke:#fff;stroke-width:5;stroke-linecap:butt;stroke-linejoin:miter;stroke-miterlimit:4;stroke-dasharray:none;stroke-opacity:1" id="path2213" d="M 407.5,765 V 710"/><rect style="fill:#9a9996;fill-opacity:1;stroke:none;stroke-width:2;stroke-linecap:square;stroke-linejoin:round;stroke-dashoffset:26.4" id="rect2215" width="10" height="10" x="465" y="785"/><rect style="fill:#9a9996;fill-opacity:1;stroke:none;stroke-width:2;stroke-linecap:square;stroke-linejoin:round;stroke-dashoffset:26.4" id="rect2217" width="15" height="10" x="472.5" y="770"/><rect style="fill:#9a9996;fill-opacity:1;stroke:none;stroke-width:2;stroke-linecap:square;stroke-linejoin:round;stroke-dashoffset:26.4" id="rect2219" width="22.5" height="15" x="465" y="800"/><rect style="fill:#9a9996;fill-opacity:1;stroke:none;stroke-width:2;stroke-linecap:square;stroke-linejoin:round;stroke-dashoffset:26.4" id="rect2221" width="15" height="10" x="450" y="745"/><rect style="fill:#9a9996;fill-opacity:1;stroke:none;stroke-width:2;stroke-linecap:square;stroke-linejoin:round;stroke-dashoffset:26.4" id="rect2223" width="10" height="20" x="450" y="720"/><rect style="fill:#9a9996;fill-opacity:1;stroke:none;stroke-width:2;stroke-linecap:square;stroke-linejoin:round;stroke-dashoffset:26.4" id="rect2225" width="15" height="10" x="520" y="745"/><rect style="fill:#9a9996;fill-opacity:1;stroke:none;stroke-width:2;stroke-linecap:square;stroke-linejoin:round;stroke-dashoffset:26.4" id="rect2227" width="15" height="10" x="520" y="730"/><rect style="fill:#9a9996;fill-opacity:1;stroke:none;stroke-width:2;stroke-linecap:square;stroke-linejoin:round;stroke-dashoffset:26.4" id="rect2229" width="10" height="10" x="410" y="845"/><rect style="fill:#9a9996;fill-opacity:1;stroke:none;stroke-width:2;stroke-linecap:square;stroke-linejoin:round;stroke-dashoffset:26.4" id="rect2231" width="20" height="15" x="425" y="840"/><path style="fill:none;stroke:#fff;stroke-width:5;stroke-linecap:butt;stroke-linejoin:miter;stroke-miterlimit:4;stroke-dasharray:none;stroke-opacity:1" id="path2233" d="m 265.00001,862.5 h 55 L 355,827.50001 l 35,35 h 70"/><path style="fill:none;stroke:#fff;stroke-width:4.99999;stroke-linecap:butt;stroke-linejoin:miter;stroke-miterlimit:4;stroke-dasharray:none;stroke-opacity:1" id="path2235" d="M 292.5,880.00003 V 835.00002"/><path style="fill:none;stroke:#fff;stroke-width:4.99999;stroke-linecap:butt;stroke-linejoin:miter;stroke-miterlimit:4;stroke-dasharray:none;stroke-opacity:1" id="path2237" d="M 267.5,880.00003 V 835.00002"/><path style="fill:none;stroke:#fff;stroke-width:5;stroke-linecap:butt;stroke-linejoin:miter;stroke-miterlimit:4;stroke-dasharray:none;stroke-opacity:1" id="path2239" d="M 457.5,880 V 762"/><rect style="fill:#9a9996;fill-opacity:1;stroke:none;stroke-width:2;stroke-linecap:square;stroke-linejoin:round;stroke-dashoffset:26.4" id="rect2241" width="20" height="10" x="415" y="870"/><rect style="fill:#9a9996;fill-opacity:1;stroke:none;stroke-width:2;stroke-linecap:square;stroke-linejoin:round;stroke-dashoffset:26.4" id="rect2243" width="10" height="5" x="470" y="750"/><rect style="fill:#9a9996;fill-opacity:1;stroke:none;stroke-width:2;stroke-linecap:square;stroke-linejoin:round;stroke-dashoffset:26.4" id="rect2245" width="25" height="15" x="235" y="840"/><path style="fill:none;stroke:#fff;stroke-width:4.99999;stroke-linecap:butt;stroke-linejoin:miter;stroke-miterlimit:4;stroke-dasharray:none;stroke-opacity:1" id="path2247" d="M 402.50001,880.00003 V 835.00002"/><circle style="fill:#2ec27e;stroke:none;stroke-width:4;stroke-linecap:square;stroke-linejoin:round;stroke-dashoffset:26.4" id="path2678" cx="412.5" cy="805" r="10"/><circle style="fill:#2ec27e;stroke:none;stroke-width:4;stroke-linecap:square;stroke-linejoin:round;stroke-dashoffset:26.4" id="circle2680" cx="412.5" cy="780" r="10"/><rect style="fill:#9a9996;fill-opacity:1;stroke:none;stroke-width:2;stroke-linecap:square;stroke-linejoin:round;stroke-dashoffset:26.4" id="rect2688" width="10" height="15" x="275" y="840"/><path style="fill:#9a9996;fill-opacity:1;stroke:none;stroke-width:1px;stroke-linecap:butt;stroke-linejoin:miter;stroke-opacity:1" id="path2720" d="m 400,720 h -10 l -20,-20 v -10 l 20,20 h 10 z"/><rect style="fill:#2ec27e;fill-opacity:1;stroke:none;stroke-width:1.99999;stroke-linecap:square;stroke-linejoin:round;stroke-dashoffset:26.4" id="rect2722" width="10" height="40" x="415" y="710"/><rect style="fill:#9a9996;fill-opacity:1;stroke:none;stroke-width:2;stroke-linecap:square;stroke-linejoin:round;stroke-dashoffset:26.4" id="rect3147" width="10" height="10" x="280" y="745"/><rect style="fill:#9a9996;fill-opacity:1;stroke:none;stroke-width:2;stroke-linecap:square;stroke-linejoin:round;stroke-dashoffset:26.4" id="rect3149" width="15" height="20" x="295" y="735"/><circle style="fill:#2ec27e;stroke:none;stroke-width:4;stroke-linecap:square;stroke-linejoin:round;stroke-dashoffset:26.4" id="circle3155" cx="300" cy="780" r="5"/></g><g id="g42790" transform="matrix(0.74953932,0,0,0.74953932,237.62769,-124.68811)" style="stroke-width:3.33333"><g id="g153323" style="stroke-width:3.33333"><circle id="circle882" cx="64.723" cy="186.738" r="12.689" style="display:inline;vector-effect:none;fill:none;fill-opacity:1;stroke:#77767b;stroke-width:5.33661;stroke-linecap:butt;stroke-linejoin:round;stroke-miterlimit:4;stroke-dasharray:none;stroke-dashoffset:0;stroke-opacity:1;enable-background:new"/><rect style="display:inline;vector-effect:none;fill:url(#linearGradient1102);fill-opacity:1;stroke:none;stroke-width:5.95627;stroke-linecap:butt;stroke-linejoin:round;stroke-miterlimit:4;stroke-dasharray:none;stroke-dashoffset:0;stroke-opacity:1;enable-background:new" id="rect872" width="7.148" height="17.869" x="61.111" y="190.222"/><rect style="display:inline;vector-effect:none;fill:url(#linearGradient1120);fill-opacity:1;stroke:none;stroke-width:6.0425;stroke-linecap:butt;stroke-linejoin:round;stroke-miterlimit:4;stroke-dasharray:none;stroke-dashoffset:0;stroke-opacity:1;enable-background:new" id="rect876" width="10.876" height="9.064" x="59.284" y="183.113"/><rect style="display:inline;opacity:.2;vector-effect:none;fill:#000;fill-opacity:1;stroke:none;stroke-width:6.0425;stroke-linecap:butt;stroke-linejoin:round;stroke-miterlimit:4;stroke-dasharray:none;stroke-dashoffset:0;stroke-opacity:1;enable-background:new" id="rect1152" width="7.251" height="1.813" x="61.097" y="192.177"/><rect id="rect1154" width="7.251" height="1.813" x="183.113" y="-62.91" transform="rotate(90)" style="display:inline;opacity:.392059;vector-effect:none;fill:#000;fill-opacity:1;stroke:none;stroke-width:6.0425;stroke-linecap:butt;stroke-linejoin:round;stroke-miterlimit:4;stroke-dasharray:none;stroke-dashoffset:0;stroke-opacity:1;enable-background:new"/><rect style="display:inline;opacity:.392059;vector-effect:none;fill:#000;fill-opacity:1;stroke:none;stroke-width:6.0425;stroke-linecap:butt;stroke-linejoin:round;stroke-miterlimit:4;stroke-dasharray:none;stroke-dashoffset:0;stroke-opacity:1;enable-background:new" id="rect1156" width="7.251" height="1.813" x="183.113" y="-66.535" transform="rotate(90)"/><rect id="rect1158" width="7.251" height="1.813" x="183.113" y="-70.161" transform="rotate(90)" style="display:inline;opacity:.392059;vector-effect:none;fill:#000;fill-opacity:1;stroke:none;stroke-width:6.0425;stroke-linecap:butt;stroke-linejoin:round;stroke-miterlimit:4;stroke-dasharray:none;stroke-dashoffset:0;stroke-opacity:1;enable-background:new"/></g><circle style="display:inline;opacity:1;vector-effect:none;fill:#000;fill-opacity:.23911;stroke:none;stroke-width:6.66667;stroke-linecap:butt;stroke-linejoin:round;stroke-miterlimit:4;stroke-dasharray:none;stroke-dashoffset:0;stroke-opacity:1;enable-background:new" id="circle3611" cx="64" cy="258.117" r="46"/><circle style="display:inline;opacity:1;vector-effect:none;fill:#3d3846;fill-opacity:1;stroke:none;stroke-width:6.66667;stroke-linecap:butt;stroke-linejoin:round;stroke-miterlimit:4;stroke-dasharray:none;stroke-dashoffset:0;stroke-opacity:1;enable-background:new" id="circle4922" cx="64" cy="253.887" r="46"/><circle id="circle4297" cx="64" cy="250" r="46" style="display:inline;opacity:1;vector-effect:none;fill:#77767b;fill-opacity:1;stroke:none;stroke-width:6.66667;stroke-linecap:butt;stroke-linejoin:round;stroke-miterlimit:4;stroke-dasharray:none;stroke-dashoffset:0;stroke-opacity:1;enable-background:new"/><circle style="display:inline;opacity:1;vector-effect:none;fill:#77767b;fill-opacity:1;stroke:none;stroke-width:6.66667;stroke-linecap:butt;stroke-linejoin:round;stroke-miterlimit:4;stroke-dasharray:none;stroke-dashoffset:0;stroke-opacity:1;enable-background:new" id="circle1953" cx="64" cy="250" r="42"/><g id="g4333" transform="matrix(1,0,0,-1,150,499.99918)" style="stroke-width:3.33333"><circle style="display:inline;opacity:1;vector-effect:none;fill:#fff;fill-opacity:1;stroke:none;stroke-width:8;stroke-linecap:butt;stroke-linejoin:round;stroke-miterlimit:4;stroke-dasharray:none;stroke-dashoffset:0;stroke-opacity:1;enable-background:new" id="circle4301" cx="-147.774" cy="219.223" r="39.682" transform="rotate(-15)"/></g><g id="g7534" transform="rotate(30,64,250.30467)" style="stroke-width:3.33333"><g style="display:inline;fill:#fff;stroke-width:3.33333;enable-background:new" id="g7522" transform="matrix(-1,0,0,-1.2469164,128.0295,557.42676)"><path style="fill:#9a9996;fill-rule:evenodd;stroke:none;stroke-width:1.41607px;enable-background:new" id="path7518" d="M 64.000005,217.95807 55.693168,243 h 16.613674 z"/><path style="fill:#5e5c64;fill-opacity:.373444;fill-rule:evenodd;stroke-width:1.41607;enable-background:new" id="path7520" d="M 63.99774,217.9649 55.693168,243 h 8.304572 z"/></g><g style="display:inline;stroke-width:3.33333;enable-background:new" id="g3417" transform="matrix(1,0,0,1.2469164,-4.7737892e-6,-56.817416)"><path style="fill:#1a1a1a;fill-opacity:.4;fill-rule:evenodd;stroke-width:3.33333;filter:url(#filter4520);enable-background:new" id="path1538" d="m 527.04,1123.5 -24,48 h 48 z" transform="matrix(0.24993183,0,0,0.24993183,-67.725837,-48.782593)"/><path style="fill:#ed333b;fill-rule:evenodd;stroke:none;stroke-width:1.41607px;enable-background:new" id="path1540" d="M 64.000005,217.95807 55.693168,243 h 16.613674 z"/><path style="fill:#fff;fill-opacity:.373444;fill-rule:evenodd;stroke-width:1.41607;enable-background:new" id="path1542" d="M 63.99774,217.9649 55.693168,243 h 8.304572 z"/></g><circle id="circle1548" cx="64" cy="250" r="12" style="display:inline;fill:url(#linearGradient1616);stroke-width:0;enable-background:new"/><circle id="circle1550" cx="64" cy="-249" r="11" transform="scale(1,-1)" style="display:inline;fill:#ccc;stroke-width:0;enable-background:new"/></g></g><g id="g1415" transform="matrix(-1,0,0,1,953.60579,50)"><g id="g1402"><path id="path1153" d="m 470.69232,157.96444 -6.23828,0.89061 -6.23633,0.89064 -58.53711,58.53711 -2.38867,2.38867 -2.375,2.37501 c -1.97442,1.97442 -1.97442,5.15447 0,7.12889 l 3.56438,3.56259 c 1.97443,1.97444 5.15252,1.97444 7.12694,1e-5 l 4.13468,-4.13289 1.80478,-1.80657 57.36133,-57.36131 0.89061,-6.23634 z" style="display:inline;vector-effect:none;fill:#000;fill-opacity:.15861;stroke:none;stroke-width:52.4593;stroke-linecap:round;stroke-linejoin:miter;stroke-miterlimit:4;stroke-dasharray:none;stroke-dashoffset:0;stroke-opacity:1;marker:none;marker-start:none;marker-mid:none;marker-end:none;paint-order:normal;enable-background:new"/><g style="display:inline;stroke-width:3.33333;enable-background:new" id="g1715" transform="matrix(-0.89098932,0.89098932,0.89098932,0.89098932,443.43943,45.823498)"><path style="display:inline;opacity:1;vector-effect:none;fill:url(#linearGradient1717);fill-opacity:1;stroke:none;stroke-width:41.6327;stroke-linecap:round;stroke-linejoin:miter;stroke-miterlimit:4;stroke-dasharray:none;stroke-dashoffset:0;stroke-opacity:1;marker:none;marker-start:none;marker-mid:none;marker-end:none;paint-order:normal;enable-background:new" id="path1696" d="m 48.000002,77 v -6 l 4,-3 v 12 z"/><path id="rect1698" d="m 118.40572,68 h 4.63998 c 2.216,0 4,1.784 4,4 v 4 c 0,2.216 -1.784,4 -4,4 h -4.63998 c -2.216,0 -4,-1.784 -4,-4 v -4 c 0,-2.216 1.784,-4 4,-4 z" style="opacity:1;fill:url(#linearGradient1719);fill-opacity:1;stroke:none;stroke-width:25.1969;stroke-linecap:round;stroke-linejoin:miter;stroke-miterlimit:4;stroke-dasharray:none;stroke-dashoffset:4;stroke-opacity:1"/><path style="display:inline;opacity:1;vector-effect:none;fill:#424048;fill-opacity:1;stroke:none;stroke-width:41.6327;stroke-linecap:round;stroke-linejoin:miter;stroke-miterlimit:4;stroke-dasharray:none;stroke-dashoffset:0;stroke-opacity:1;marker:none;marker-start:none;marker-mid:none;marker-end:none;paint-order:normal;enable-background:new" id="path1700" d="m 44,74 4.000002,-3 v 6 z"/><g id="g1711" transform="matrix(0.38869256,0,0,1,38.00707,0)" style="stroke-width:4.26027"><path id="path1705" d="m 36,78.4 v -8.8 h 168.98118 v 8.8 z" style="display:inline;fill:#e01b24;fill-opacity:1;stroke:none;stroke-width:2.15755px;stroke-linecap:butt;stroke-linejoin:miter;stroke-opacity:1;enable-background:new"/><path id="path1707" d="m 36,72 v -4 l 169.02362,1e-5 L 204.98122,72 Z" style="display:inline;opacity:1;fill:#f66151;fill-opacity:1;stroke:none;stroke-width:1.52562px;stroke-linecap:butt;stroke-linejoin:miter;stroke-opacity:1;enable-background:new"/><path id="path1709" d="m 36,76 v 4 h 169.02362 l -0.0424,-4 z" style="display:inline;opacity:1;fill:#a51d2d;fill-opacity:1;stroke:none;stroke-width:1.52562px;stroke-linecap:butt;stroke-linejoin:miter;stroke-opacity:1;enable-background:new"/></g><path id="rect1713" d="m 116.37903,68 h 4 v 12 h -4 z" style="opacity:1;fill:url(#linearGradient1721);fill-opacity:1;stroke:none;stroke-width:25.1969;stroke-linecap:round;stroke-linejoin:miter;stroke-miterlimit:4;stroke-dasharray:none;stroke-dashoffset:4;stroke-opacity:1"/></g></g></g><path id="ellipse203" d="m 487.68821,8.07668 c -6.77875,-2.703e-4 -12.27406,3.837862 -12.27344,8.572268 0.0815,0.05877 0.16416,0.116714 0.24802,0.173825 h -0.24802 v 10.238282 0.01171 c -2.41597,0.40876 -4.60512,1.255923 -6.36525,2.441409 -3.9955,2.762841 -15.32813,8.951172 -15.32813,8.951172 -2.67186,1.542605 -4.60938,4.384752 -4.60938,7.285153 v 33.427736 c 1.8e-4,3.459986 2.44467,6.509366 6.16209,8.312498 v 1.212889 h 0.0176 c 0.0143,1.081611 0.25696,2.121727 0.66993,3.111332 -1.05588,0.606226 -2.01544,1.293965 -2.86133,2.050777 0.0479,0.03468 0.0961,0.0692 0.14455,0.103516 h -0.11523 v 2.965265 c -0.01,0.0072 -0.0197,0.01429 -0.0295,0.02146 0.01,0.0072 0.0197,0.01433 0.0295,0.0215 v 1.066406 l 1.48826,4.935132 c 0.7169,6.47052 7.8845,11.60905 16.91017,12.12304 9.02486,-0.51464 16.19144,-5.65301 16.90817,-12.12304 l 1.5469,-4.935132 v -4.074635 h -0.17383 c 0.0484,-0.03432 0.0966,-0.06882 0.14451,-0.103516 -0.81608,-0.723766 -1.73653,-1.383676 -2.74606,-1.968752 0.37649,-0.878006 0.59569,-1.800466 0.66015,-2.753905 h 1.71876 c 0.53074,0.04372 1.06341,0.06644 1.59764,0.06641 7.72758,-1.06e-4 13.99385,-4.49131 13.99413,-10.03125 h 0.10938 V 67.770018 c 0.10663,0.0062 0.21347,0.0095 0.3203,0.0098 0.16638,-4.1e-4 0.33255,-0.0084 0.49807,-0.02346 v 11.421876 h 0.10937 c 2.9e-4,5.53994 6.26459,10.031144 13.99217,10.03125 0.53423,3.7e-5 1.06886,-0.02269 1.59965,-0.06641 h 0.84957 c -0.80535,1.50761 -1.2184,3.108277 -1.21873,4.722658 0,0.03452 0,0.06901 0,0.103516 h -0.0311 v 9.009762 h 0.0918 c 0.78933,6.85117 8.77604,12.12327 18.36522,12.12305 9.5884,-4.1e-4 17.57396,-5.27241 18.36326,-12.12305 h 0.0352 v -0.36718 c 0.0188,-0.24 0.0287,-0.48033 0.0295,-0.72071 0,-0.24038 -0.0102,-0.4807 -0.0295,-0.7207 v -6.583985 c 0.0188,-0.239999 0.0287,-0.480322 0.0295,-0.720703 0,-2.170755 -0.74708,-4.30798 -2.17379,-6.222659 V 87.49071 c 3.71746,-1.803132 6.16193,-4.852511 6.16209,-8.312497 V 45.750452 c 0,-2.900401 -1.93752,-5.742553 -4.60938,-7.285158 0,0 -11.33263,-6.188331 -15.32809,-8.951171 -1.75988,-1.185298 -3.94977,-2.032568 -6.36524,-2.441405 v -1.650392 -8.59961 h -0.006 c 0,-0.05793 0.004,-0.115874 0.004,-0.173825 0,-4.733874 -5.49351,-8.5717893 -12.27148,-8.5722684 -6.77875,-2.702e-4 -12.27402,3.8378624 -12.27345,8.5722684 -2e-4,0.05795 0,0.11589 0,0.173825 h -0.0254 v 10.238282 9.828125 h 0.0233 c 0.006,0.392262 0.0493,0.783798 0.13087,1.171875 l -1.77933,1.302736 c -0.96313,-1.200064 -2.51756,-1.912168 -4.17384,-1.912111 -1.61676,1.27e-4 -3.13888,0.679038 -4.10742,1.832031 l -2.48238,-1.814451 c 0.28902,-0.184006 0.56534,-0.377585 0.82811,-0.58008 h 0.13477 v -11.46674 -8.59961 h -0.26953 c 0.0839,-0.05711 0.16654,-0.115059 0.24803,-0.173825 0,-4.734406 -5.49482,-8.5725383 -12.27353,-8.572268 z" style="fill:#000;fill-opacity:.218893;stroke:none;stroke-width:2;stroke-opacity:.956856;stop-color:#000"/><g id="g1716" transform="matrix(0.40949294,0,0,0.40949294,-158.70696,-39.028201)" style="stroke-width:2.44204"><g id="g1655" transform="translate(65.484375)" style="stroke-width:2.44204"><ellipse style="opacity:1;fill:#c0bfbc;fill-opacity:1;stroke:none;stroke-width:4.88409;stroke-opacity:.956856;stop-color:#000" id="ellipse1510" cx="1600.026" cy="124.179" rx="29.971" ry="20.932"/><ellipse style="font-variation-settings:normal;opacity:1;vector-effect:none;fill:url(#linearGradient3613);fill-opacity:1;stroke:none;stroke-width:4.88409;stroke-linecap:butt;stroke-linejoin:miter;stroke-miterlimit:4;stroke-dasharray:none;stroke-dashoffset:0;stroke-opacity:.956856;stop-color:#000;stop-opacity:1" id="path1506" cx="1600.012" cy="173.41" rx="29.957" ry="21.025"/><rect style="opacity:1;fill:#c0bfbc;fill-opacity:1;stroke:none;stroke-width:4.88406;stroke-opacity:.956856;stop-color:#000" id="rect1512" width="60" height="25" x="1570" y="124.605"/><rect style="font-variation-settings:normal;opacity:1;vector-effect:none;fill:url(#linearGradient1875);fill-opacity:1;stroke:none;stroke-width:4.88409;stroke-linecap:butt;stroke-linejoin:miter;stroke-miterlimit:4;stroke-dasharray:none;stroke-dashoffset:0;stroke-opacity:.956856;stop-color:#000;stop-opacity:1" id="rect1514" width="60" height="28" x="1570" y="145.605"/><ellipse style="font-variation-settings:normal;opacity:1;vector-effect:none;fill:url(#linearGradient3615);fill-opacity:1;stroke:none;stroke-width:4.88409;stroke-linecap:butt;stroke-linejoin:miter;stroke-miterlimit:4;stroke-dasharray:none;stroke-dashoffset:0;stroke-opacity:.956856;stop-color:#000;stop-opacity:1" id="ellipse1508" cx="1599.997" cy="145.581" rx="29.942" ry="21.025"/><path id="path1636" d="m 1622.1426,148.95313 c -8.3235,3.2e-4 -16.0076,2.14594 -21.9727,5.73828 l -34.7695,25.41796 c -3.983,3.64854 -8.3516,8.69774 -8.3516,14.45802 v 82.30956 h 137.1817 v -81.6289 c 0,-7.08291 -4.7291,-14.02586 -11.2539,-17.79297 0,0 -27.6764,-15.11044 -37.4336,-21.85742 -6.1423,-4.13692 -14.3994,-6.64459 -23.4004,-6.64453 z" style="fill:url(#linearGradient1183);fill-opacity:1;stroke:none;stroke-width:4.88409;stroke-opacity:.956856;stop-color:#000"/><path id="ellipse1522-2-9" d="m 1622.1426,230.58203 c -8.3235,3.3e-4 -16.0078,2.14501 -21.9729,5.73735 l -34.7702,25.41799 c -4.6822,3.76031 -8.0068,10.18768 -8.083,15.13958 7e-4,13.52878 15.2988,24.49584 34.1699,24.4961 1.3046,9e-5 2.6082,-0.0534 3.9043,-0.16016 h 60.7734 c 1.2935,0.10656 2.5945,0.16004 3.8965,0.16016 18.8711,-2.6e-4 34.1692,-10.96732 34.1699,-24.4961 -0.9316,-8.62934 -5.5184,-14.14858 -11.2542,-17.79335 0,0 -27.6765,-15.10955 -37.4337,-21.85653 -6.1423,-4.13692 -14.399,-6.64509 -23.4,-6.64504 z" style="fill:#3d3846;fill-opacity:1;stroke:none;stroke-width:4.88409;stroke-opacity:.956856;stop-color:#000"/><path id="ellipse1573" d="m 1639.2975,252.01757 c -21.9833,4e-4 -39.8028,12.51465 -39.8028,27.95118 V 280 h -0.074 v 20.13867 h 0.074 c 0.2036,15.33453 17.9741,27.69015 39.8242,27.68945 21.8487,-7.6e-4 39.6168,-12.35596 39.8204,-27.68945 h 0.043 V 280 h -0.08 v -0.0312 c 0,-15.43702 -17.8206,-27.95148 -39.8046,-27.95118 z" style="font-variation-settings:normal;opacity:1;vector-effect:none;fill:url(#linearGradient1214);fill-opacity:1;stroke:none;stroke-width:4.88409;stroke-linecap:butt;stroke-linejoin:miter;stroke-miterlimit:4;stroke-dasharray:none;stroke-dashoffset:0;stroke-opacity:.956856;stop-color:#000;stop-opacity:1"/><ellipse style="opacity:1;fill:url(#linearGradient1877);fill-opacity:1;stroke:none;stroke-width:4.88409;stroke-opacity:.956856;stop-color:#000" id="ellipse1518" cx="1639.492" cy="312.744" rx="45" ry="32.261"/><rect style="font-variation-settings:normal;opacity:1;vector-effect:none;fill:url(#linearGradient3619);fill-opacity:1;stroke:none;stroke-width:4.88409;stroke-linecap:butt;stroke-linejoin:miter;stroke-miterlimit:4;stroke-dasharray:none;stroke-dashoffset:0;stroke-opacity:.956856;stop-color:#000;stop-opacity:1" id="rect1520" width="90" height="22" x="1594.42" y="313"/><ellipse style="opacity:1;fill:#888784;fill-opacity:1;stroke:none;stroke-width:4.88409;stroke-opacity:.956856;stop-color:#000" id="path1516" cx="1639.492" cy="332.343" rx="45" ry="32.261"/><g id="g1525" clip-path="url(#clipPath1547)" transform="translate(24.420445)" style="stroke-width:2.44204"><ellipse style="opacity:1;fill:url(#linearGradient1308);fill-opacity:1;stroke:none;stroke-width:4.88409;stroke-opacity:.956856;stop-color:#000" id="ellipse1522" cx="1615.072" cy="332.343" rx="34.171" ry="24.497"/><ellipse style="fill:url(#radialGradient3627);fill-opacity:1;stroke:none;stroke-width:4.88409;stroke-opacity:.956856;stop-color:#000" id="ellipse1522-2" cx="1615.391" cy="325.694" rx="34.171" ry="24.497"/></g></g><use id="use1657" width="100%" height="100%" x="0" y="0" transform="matrix(-1,0,0,1,3243.0664,0)" xlink:href="#g1655" style="stroke-width:2.44204"/><ellipse style="fill:#d0cfcd;fill-opacity:1;stroke:none;stroke-width:4.88409;stroke-opacity:.956856;stop-color:#000" id="ellipse1510-1" cx="1621.324" cy="186.14" rx="12.528" ry="11.158"/><rect style="fill:#d0cfcd;fill-opacity:1;stroke:none;stroke-width:4.88404;stroke-opacity:.956856;stop-color:#000" id="rect1512-7" width="25.081" height="40.062" x="1608.772" y="185.082"/><rect style="fill:#cfcecc;fill-opacity:1;stroke:none;stroke-width:4.88409;stroke-opacity:.956856;stop-color:#000" id="rect1514-0" width="25.081" height="14.926" x="1608.772" y="223.012"/><ellipse style="fill:#cfcecb;fill-opacity:1;stroke:none;stroke-width:4.88409;stroke-opacity:.956856;stop-color:#000" id="ellipse1508-9" cx="1621.312" cy="222.999" rx="12.516" ry="11.208"/><ellipse style="fill:#a7a7ab;fill-opacity:1;stroke:none;stroke-width:4.88409;stroke-opacity:.956856;stop-color:#000" id="path1506-2" cx="1621.318" cy="237.833" rx="12.523" ry="11.208"/></g><g id="g1934" transform="translate(-30)"><g id="g1136" transform="translate(338.83984,-16)"><path id="path1911" d="m -180.0957,85 c -32.59899,0 -58.86579,26.24477 -58.84375,58.84375 l 0.0488,72.70703 c -11.6645,2.39532 -29.94924,12.8821 -29.94922,35.25391 v 33.39062 c 0,14.29534 11.36864,25.80469 25.49023,25.80469 h 25.50977 118 21 4.50977 c 14.12159,0 25.49023,-11.50935 25.49023,-25.80469 v -33.39062 c 0,-22.43988 -18.39732,-32.92413 -30.05664,-35.27735 l -0.04297,-72.68359 C -78.95886,111.24477 -105.18421,85 -137.7832,85 Z" style="fill:#000;fill-opacity:.121604;stroke:none;stroke-width:1.99999;stop-color:#000"/><path id="path1891" d="m -234.07574,211 h 16.33542 l -0.0995,95 h -25.50977 c -14.12159,0 -25.49023,-11.50853 -25.49023,-25.80387 V 246.80387 C -268.83984,221 -244.5091,211 -234.07574,211 Z" style="font-variation-settings:normal;opacity:1;vector-effect:none;fill:url(#radialGradient1200);fill-opacity:1;stroke:none;stroke-width:1.99999;stroke-linecap:butt;stroke-linejoin:miter;stroke-miterlimit:4;stroke-dasharray:none;stroke-dashoffset:0;stroke-opacity:1;stop-color:#000;stop-opacity:1"/><circle style="fill:none;fill-opacity:1;stroke:#3d3846;stroke-width:10;stroke-miterlimit:4;stroke-dasharray:none;stroke-opacity:1;stop-color:#000" id="path1120" cx="-158.939" cy="90.352" r="30"/><path id="path1820" d="M -83.603941,211 H -99.93936 l 0.09952,95 c 0,0 11.38818,0 25.50977,0 14.12159,0 25.49023,-11.50853 25.49023,-25.80387 V 246.80387 C -48.83984,221 -73.17058,211 -83.603941,211 Z" style="fill:url(#radialGradient1172);fill-opacity:1;stroke:none;stroke-width:1.99999;stop-color:#000"/><path id="rect1072" d="m -180.09642,80.000001 h 42.31412 c 32.59899,0 58.823529,26.865859 58.842938,60.237319 l 0.09952,155.76269 H -238.83984 l -0.0995,-155.76269 c -0.0213,-33.37146 26.24393,-60.237319 58.84292,-60.237319 z" style="fill:#5e5c64;fill-opacity:1;stroke:none;stroke-width:1.99999;stop-color:#000"/><path id="path1149" d="M 238.90039,195 239,290 h 25.50977 C 278.63136,290 290,278.49065 290,264.19531 v -15 C 290,263.49065 278.63136,275 264.50977,275 H 239 l -0.084,-80 z" transform="translate(-338.83984,16)" style="fill:url(#linearGradient1208);fill-opacity:1;stroke:none;stroke-width:1.99999;stop-color:#000"/><path id="path1893" d="m 179.95898,64 c 32.59899,0 58.82239,26.24477 58.8418,58.84375 L 239,290 h 21 L 259.9004,122.84375 C 259.88098,90.24477 233.65563,64 201.05664,64 Z" transform="translate(-338.83984,16)" style="fill:#58575a;fill-opacity:1;stroke:none;stroke-width:1.99999;stop-color:#000"/><path id="path1152" d="m -217.74024,211 -0.0996,95 h -25.50977 c -14.12159,0 -25.49023,-11.50935 -25.49023,-25.80469 v -15 c 0,14.29534 11.36864,25.80469 25.49023,25.80469 h 25.50977 l 0.084,-80 z" style="fill:url(#linearGradient1162);fill-opacity:1;stroke:none;stroke-width:1.99999;stop-color:#000"/><path id="path303" d="m -78.83984,306 h -160 l 0.01,-15 h 159.99 z" style="fill:url(#linearGradient1137);fill-opacity:1;stroke:none;stroke-width:1.99999;stop-color:#000"/></g><rect style="font-variation-settings:normal;opacity:1;vector-effect:none;fill:#77767b;fill-opacity:1;stroke:none;stroke-width:2;stroke-linecap:butt;stroke-linejoin:miter;stroke-miterlimit:4;stroke-dasharray:none;stroke-dashoffset:0;stroke-opacity:1;stop-color:#000;stop-opacity:1" id="rect1854" width="120" height="80" x="120" y="133.052" rx="9.759" ry="9.759"/><path id="path1257" d="m 129.75781,135.05234 c -5.40637,0 -9.75781,4.35144 -9.75781,9.75781 v 15.24219 h 120 v -15.24219 c 0,-5.40637 -4.35144,-9.75781 -9.75781,-9.75781 z" style="font-variation-settings:normal;opacity:1;vector-effect:none;fill:#000;fill-opacity:.0746971;stroke:none;stroke-width:2;stroke-linecap:butt;stroke-linejoin:miter;stroke-miterlimit:4;stroke-dasharray:none;stroke-dashoffset:0;stroke-opacity:1;stop-color:#000;stop-opacity:1"/><path id="rect1856" d="m 129.75781,133.05234 c -5.40637,0 -9.75781,4.35144 -9.75781,9.75781 v 15.24219 h 120 v -15.24219 c 0,-5.40637 -4.35144,-9.75781 -9.75781,-9.75781 z" style="font-variation-settings:normal;opacity:1;vector-effect:none;fill:#9a9996;fill-opacity:1;stroke:none;stroke-width:2;stroke-linecap:butt;stroke-linejoin:miter;stroke-miterlimit:4;stroke-dasharray:none;stroke-dashoffset:0;stroke-opacity:1;stop-color:#000;stop-opacity:1"/><circle style="font-variation-settings:normal;opacity:1;vector-effect:none;fill:#9a9996;fill-opacity:1;stroke:none;stroke-width:2;stroke-linecap:butt;stroke-linejoin:miter;stroke-miterlimit:4;stroke-dasharray:none;stroke-dashoffset:0;stroke-opacity:1;stop-color:#000;stop-opacity:1" id="path1861" cx="180" cy="90" r="10"/><path id="path1143-3" d="m 218,128.05234 h 9 a 3,3 45 0 1 3,3 v 56 a 6.2755585,6.2755585 115.5499 0 1 -2.33472,4.8839 l -2.76639,2.2322 a 3.7498326,3.7498326 179.76086 0 1 -4.68509,0.0196 l -2.86343,-2.27132 A 6.2088284,6.2088284 64.210959 0 1 215,187.05234 v -56 a 3,3 135 0 1 3,-3 z" style="fill:#3d3846;stroke-width:10;stop-color:#000"/><path id="path1887" d="m 133,128.05234 h 9 a 3,3 45 0 1 3,3 v 56 a 6.2755585,6.2755585 115.5499 0 1 -2.33472,4.8839 l -2.76639,2.2322 a 3.7498326,3.7498326 179.76086 0 1 -4.68509,0.0196 l -2.86343,-2.27132 A 6.2088284,6.2088284 64.210959 0 1 130,187.05234 v -56 a 3,3 135 0 1 3,-3 z" style="fill:#3d3846;stroke-width:10;stop-color:#000"/><rect style="font-variation-settings:normal;opacity:1;vector-effect:none;fill:#77767b;fill-opacity:1;stroke:none;stroke-width:2;stroke-linecap:butt;stroke-linejoin:miter;stroke-miterlimit:4;stroke-dasharray:none;stroke-dashoffset:0;stroke-opacity:1;stop-color:#000;stop-opacity:1" id="rect1898" width="15" height="10" x="130" y="135" rx="0" ry="0"/><rect style="font-variation-settings:normal;opacity:1;vector-effect:none;fill:#77767b;fill-opacity:1;stroke:none;stroke-width:2;stroke-linecap:butt;stroke-linejoin:miter;stroke-miterlimit:4;stroke-dasharray:none;stroke-dashoffset:0;stroke-opacity:1;stop-color:#000;stop-opacity:1" id="rect1900" width="15" height="10" x="215" y="135" rx="0" ry="0"/></g></g></svg>